<svg width="164" height="151" viewBox="0 0 164 151" fill="none" xmlns="http://www.w3.org/2000/svg">
<mask id="path-1-outside-1_24_7" maskUnits="userSpaceOnUse" x="-0.392029" y="0.200012" width="165" height="151" fill="black">
<rect fill="white" x="-0.392029" y="0.200012" width="165" height="151"/>
<path d="M78.672 10.2V125.544C78.672 128.424 77.664 129.432 74.64 129.432C71.76 129.576 61.392 129.72 50.736 129.288C52.608 132.456 54.624 137.496 55.2 140.664C68.88 140.664 77.808 140.376 82.992 138.504C88.176 136.776 90.336 133.608 90.336 125.544V10.2H78.672ZM113.52 46.92C125.76 67.512 137.424 94.584 140.88 111.576L152.4 106.968C148.656 89.544 136.416 63.192 123.888 42.888L113.52 46.92ZM40.944 43.896C37.344 63.336 29.424 88.248 16.608 103.512C19.488 104.664 24.24 107.256 26.832 109.272C39.936 93.144 48.288 67.08 53.04 45.912L40.944 43.896Z"/>
</mask>
<path d="M78.672 10.2V0.200012H68.672V10.2H78.672ZM74.64 129.432V119.432H74.3901L74.1406 119.444L74.64 129.432ZM50.736 129.288L51.141 119.296L32.7764 118.552L42.1267 134.375L50.736 129.288ZM55.2 140.664L45.3613 142.453L46.8542 150.664H55.2V140.664ZM82.992 138.504L79.8297 129.017L79.7121 129.056L79.5955 129.098L82.992 138.504ZM90.336 10.2H100.336V0.200012H90.336V10.2ZM113.52 46.92L109.896 37.6L98.8907 41.8796L104.924 52.0296L113.52 46.92ZM140.88 111.576L131.081 113.569L133.469 125.311L144.594 120.861L140.88 111.576ZM152.4 106.968L156.114 116.253L163.95 113.118L162.177 104.867L152.4 106.968ZM123.888 42.888L132.398 37.6369L128.025 30.5495L120.264 33.568L123.888 42.888ZM40.944 43.896L42.588 34.0321L32.8996 32.4174L31.1112 42.0751L40.944 43.896ZM16.608 103.512L8.9495 97.0818L0.0638459 107.665L12.8941 112.797L16.608 103.512ZM26.832 109.272L20.6926 117.166L28.4199 123.176L34.5931 115.578L26.832 109.272ZM53.04 45.912L62.7971 48.1024L65.113 37.7863L54.684 36.0481L53.04 45.912ZM68.672 10.2V125.544H88.672V10.2H68.672ZM68.672 125.544C68.672 126.324 68.4222 123.727 70.8221 121.395C73.1342 119.149 75.5877 119.432 74.64 119.432V139.432C76.7163 139.432 81.1857 139.211 84.7578 135.741C88.4177 132.186 88.672 127.644 88.672 125.544H68.672ZM74.1406 119.444C71.6215 119.57 61.5619 119.719 51.141 119.296L50.3309 139.28C61.2221 139.721 71.8984 139.582 75.1394 139.42L74.1406 119.444ZM42.1267 134.375C43.5363 136.761 45.0408 140.69 45.3613 142.453L65.0387 138.875C64.2071 134.302 61.6796 128.151 59.3452 124.201L42.1267 134.375ZM55.2 150.664C62.0454 150.664 67.9925 150.594 72.9472 150.264C77.7709 149.942 82.4394 149.336 86.3884 147.91L79.5955 129.098C78.3605 129.544 75.9731 130.018 71.6168 130.308C67.3914 130.59 62.0345 130.664 55.2 130.664V150.664ZM86.1542 147.991C90.1726 146.651 94.4151 144.243 97.2234 139.477C99.7673 135.16 100.336 130.198 100.336 125.544H80.336C80.336 127.15 80.2252 128.182 80.1013 128.819C79.9821 129.432 79.8835 129.508 79.9926 129.323C80.1326 129.085 80.3458 128.867 80.5104 128.749C80.6134 128.676 80.4785 128.801 79.8297 129.017L86.1542 147.991ZM100.336 125.544V10.2H80.336V125.544H100.336ZM90.336 0.200012H78.672V20.2H90.336V0.200012ZM104.924 52.0296C116.847 72.0891 127.93 98.0788 131.081 113.569L150.679 109.583C146.918 91.0892 134.673 62.935 122.116 41.8105L104.924 52.0296ZM144.594 120.861L156.114 116.253L148.686 97.6833L137.166 102.291L144.594 120.861ZM162.177 104.867C158.09 85.8496 145.198 58.3811 132.398 37.6369L115.378 48.1391C127.634 68.0029 139.222 93.2384 142.623 109.069L162.177 104.867ZM120.264 33.568L109.896 37.6L117.144 56.2401L127.512 52.2081L120.264 33.568ZM31.1112 42.0751C27.6068 60.9986 20.0773 83.8285 8.9495 97.0818L24.2664 109.942C38.7707 92.6676 47.0811 65.6734 50.7768 45.7169L31.1112 42.0751ZM12.8941 112.797C15.0614 113.664 18.9625 115.82 20.6926 117.166L32.9714 101.378C29.5175 98.6921 23.9145 95.6643 20.3219 94.2272L12.8941 112.797ZM34.5931 115.578C49.2597 97.5267 57.9985 69.4782 62.7971 48.1024L43.2828 43.7216C38.5775 64.6818 30.6122 88.7613 19.0708 102.966L34.5931 115.578ZM54.684 36.0481L42.588 34.0321L39.3 53.76L51.396 55.776L54.684 36.0481Z" fill="white" mask="url(#path-1-outside-1_24_7)"/>
</svg>
